<svg width="170" height="36" viewBox="0 0 170 36" fill="none" xmlns="http://www.w3.org/2000/svg">
<g clip-path="url(#clip0_57_177)">
<path d="M34.9584 22.0467C32.5878 31.5551 22.9575 37.3417 13.448 34.9706C3.94243 32.6 -1.84422 22.9691 0.527459 13.4613C2.89692 3.95186 12.5273 -1.83535 22.034 0.535219C31.5429 2.90579 37.329 12.5378 34.9584 22.0467Z" fill="#F7931A"/>
<path d="M25.5682 15.2246C25.9215 12.8629 24.1234 11.5933 21.6646 10.7463L22.4622 7.54712L20.5148 7.0618L19.7383 10.1767C19.2264 10.0491 18.7006 9.92878 18.1781 9.80953L18.9601 6.6741L17.0139 6.18878L16.2157 9.38689C15.792 9.29038 15.376 9.19498 14.9722 9.09459L14.9744 9.08461L12.2888 8.41404L11.7708 10.494C11.7708 10.494 13.2156 10.8251 13.1851 10.8456C13.9738 11.0425 14.1164 11.5644 14.0925 11.9782L13.184 15.6228C13.2384 15.6367 13.3088 15.6566 13.3865 15.6877C13.3216 15.6716 13.2522 15.6539 13.1807 15.6367L11.9072 20.7422C11.8107 20.9818 11.5661 21.3412 11.0148 21.2048C11.0342 21.2331 9.59932 20.8515 9.59932 20.8515L8.63257 23.0806L11.1668 23.7124C11.6382 23.8305 12.1002 23.9542 12.555 24.0707L11.7491 27.3065L13.6943 27.7918L14.4924 24.5904C15.0238 24.7346 15.5396 24.8677 16.0443 24.9931L15.249 28.1795L17.1963 28.6648L18.0023 25.4351C21.3229 26.0635 23.82 25.8101 24.871 22.8066C25.718 20.3884 24.8289 18.9934 23.0817 18.0838C24.3541 17.7904 25.3125 16.9534 25.5682 15.2246ZM21.1188 21.4638C20.517 23.8821 16.4454 22.5748 15.1253 22.247L16.1946 17.9601C17.5147 18.2896 21.7478 18.9418 21.1188 21.4638ZM21.7212 15.1896C21.1721 17.3894 17.7832 16.2718 16.6839 15.9978L17.6534 12.1097C18.7527 12.3837 22.293 12.895 21.7212 15.1896Z" fill="white"/>
<path d="M52.0084 10.7452C53.4477 10.7452 54.6912 11.0031 55.7362 11.5095C56.7861 12.0209 57.6525 12.7098 58.3475 13.5762C59.033 14.447 59.5433 15.4647 59.8728 16.6312C60.2 17.8009 60.3642 19.0583 60.3642 20.4044C60.3642 22.4722 59.9854 24.4257 59.2205 26.2671C58.4556 28.1113 57.4179 29.7109 56.0978 31.0753C54.7789 32.4381 53.2214 33.5125 51.4254 34.3062C49.6323 35.1004 47.6827 35.4976 45.5894 35.4976C45.3188 35.4976 44.8429 35.4898 44.1706 35.4759C43.4984 35.4621 42.7258 35.3927 41.8605 35.2757C40.9897 35.1542 40.069 34.9745 39.0967 34.7338C38.125 34.4975 37.202 34.1664 36.3329 33.746L44.1046 1.09045L51.0655 0.0116577L48.2828 11.5999C48.8785 11.3315 49.4786 11.1235 50.0777 10.9721C50.6772 10.8229 51.3206 10.7452 52.0084 10.7452ZM46.1696 29.9755C47.2179 29.9755 48.2057 29.7176 49.1336 29.2112C50.0643 28.7042 50.8675 28.0198 51.5403 27.1673C52.213 26.3109 52.7455 25.3464 53.1338 24.2687C53.522 23.191 53.7184 22.0667 53.7184 20.897C53.7184 19.4599 53.4782 18.3389 52.9995 17.5286C52.5209 16.7216 51.6351 16.3156 50.3489 16.3156C49.9273 16.3156 49.3843 16.396 48.711 16.5396C48.0354 16.6922 47.4309 17.0089 46.889 17.4853L43.926 29.7919C44.1046 29.8235 44.2627 29.8535 44.3975 29.8817C44.5295 29.9122 44.6754 29.9339 44.8207 29.9489C44.9743 29.966 45.1501 29.9749 45.3626 29.9749C45.575 29.9749 45.8407 29.9755 46.1696 29.9755Z" fill="white"/>
<path d="M67.5829 34.8708H60.9382L66.5513 11.2433H73.2453L67.5852 34.8697L67.5829 34.8708ZM70.8182 8.36579C69.8903 8.36579 69.0489 8.08957 68.3023 7.53603C67.5497 6.98582 67.1769 6.13887 67.1769 4.9974C67.1769 4.36954 67.3045 3.7805 67.5574 3.22474C67.8142 2.67009 68.1498 2.19254 68.5702 1.78654C68.9901 1.38386 69.4765 1.06216 70.0289 0.819783C70.5847 0.581284 71.1759 0.462036 71.806 0.462036C72.7334 0.462036 73.5704 0.738251 74.3197 1.29179C75.0663 1.8481 75.4418 2.69505 75.4418 3.83042C75.4418 4.4605 75.3147 5.05176 75.0596 5.60641C74.8061 6.16106 74.4706 6.63861 74.0501 7.04461C73.6336 7.44784 73.1427 7.76843 72.5914 8.00859C72.0351 8.25098 71.4461 8.36579 70.8182 8.36579Z" fill="white"/>
<path d="M79.0697 5.35791L86.0333 4.27911L84.3234 11.2433H91.7812L90.4345 16.7221H83.0216L81.047 24.9864C80.8651 25.6753 80.7619 26.3187 80.7331 26.9166C80.7004 27.5173 80.7764 28.0331 80.9561 28.4674C81.1347 28.9028 81.4558 29.2383 81.9217 29.4757C82.3854 29.717 83.0493 29.8385 83.9201 29.8385C84.6373 29.8385 85.3361 29.7702 86.0117 29.6349C86.6834 29.5018 87.3639 29.3165 88.0528 29.0742L88.5487 34.1969C87.6501 34.5264 86.6773 34.8098 85.629 35.0483C84.5791 35.2901 83.3361 35.4066 81.8995 35.4066C79.834 35.4066 78.2327 35.0999 77.0918 34.4892C75.9526 33.8741 75.1472 33.0338 74.6652 31.97C74.1899 30.91 73.9775 29.6881 74.0368 28.3115C74.0984 26.9315 74.3064 25.4811 74.6652 23.9536L79.0692 5.35513L79.0697 5.35791Z" fill="white"/>
<path d="M91.4883 25.4379C91.4883 23.4029 91.8177 21.4838 92.4761 19.6873C93.1334 17.8891 94.0802 16.3167 95.3087 14.9672C96.5328 13.6244 98.0243 12.5606 99.7797 11.7797C101.527 11.0032 103.483 10.6116 105.639 10.6116C106.989 10.6116 108.194 10.7391 109.254 10.9948C110.319 11.2527 111.283 11.5861 112.154 12.0043L109.861 17.218C109.262 16.9751 108.64 16.761 107.997 16.5668C107.354 16.3688 106.569 16.2734 105.64 16.2734C103.42 16.2734 101.666 17.0383 100.36 18.563C99.0598 20.0889 98.4048 22.1427 98.4048 24.7191C98.4048 26.246 98.7342 27.4807 99.3954 28.4252C100.053 29.3698 101.268 29.8396 103.033 29.8396C103.904 29.8396 104.744 29.7486 105.549 29.5711C106.36 29.3914 107.076 29.1651 107.706 28.8978L108.203 34.2424C107.362 34.5685 106.434 34.8631 105.417 35.121C104.398 35.37 103.184 35.4992 101.777 35.4992C99.9195 35.4992 98.3471 35.2275 97.0608 34.6922C95.7741 34.1487 94.7108 33.4271 93.8733 32.513C93.0313 31.5967 92.4268 30.5268 92.0529 29.2988C91.6791 28.0719 91.4883 26.7829 91.4883 25.4379Z" fill="white"/>
<path d="M121.023 35.4976C119.436 35.4976 118.058 35.2558 116.889 34.7771C115.723 34.2984 114.757 33.6268 113.994 32.756C113.229 31.8896 112.656 30.8629 112.264 29.6799C111.872 28.4974 111.684 27.1878 111.684 25.753C111.684 23.9531 111.973 22.1538 112.557 20.3595C113.138 18.5614 114 16.9457 115.142 15.5097C116.274 14.0715 117.672 12.8956 119.317 11.9788C120.96 11.0681 122.85 10.6099 124.974 10.6099C126.532 10.6099 127.903 10.8523 129.088 11.331C130.268 11.8085 131.239 12.4858 132.008 13.3521C132.767 14.2229 133.345 15.2451 133.733 16.4299C134.124 17.6102 134.317 18.923 134.317 20.359C134.317 22.1533 134.032 23.9526 133.466 25.7524C132.9 27.5434 132.06 29.1629 130.95 30.6023C129.843 32.0382 128.459 33.2135 126.796 34.1265C125.136 35.0394 123.21 35.4976 121.023 35.4976ZM124.346 16.2729C123.36 16.2729 122.489 16.5591 121.743 17.1243C120.994 17.6961 120.365 18.4149 119.858 19.2819C119.346 20.1527 118.966 21.1022 118.709 22.1344C118.454 23.1688 118.329 24.1467 118.329 25.0757C118.329 26.5749 118.571 27.7425 119.047 28.5828C119.529 29.4186 120.394 29.8391 121.653 29.8391C122.642 29.8391 123.509 29.5551 124.259 28.9838C125.003 28.4164 125.633 27.697 126.144 26.8284C126.653 25.9621 127.036 25.0097 127.293 23.9759C127.544 22.9448 127.672 21.9614 127.672 21.034C127.672 19.5387 127.432 18.3684 126.952 17.5292C126.473 16.6933 125.603 16.2729 124.346 16.2729Z" fill="white"/>
<path d="M141.562 34.8708H134.908L140.523 11.2444H147.22L141.562 34.8708ZM144.792 8.36579C143.865 8.36579 143.024 8.08957 142.279 7.53603C141.53 6.98582 141.154 6.13887 141.154 4.9974C141.154 4.36954 141.283 3.7805 141.537 3.22474C141.79 2.67009 142.128 2.19254 142.548 1.78654C142.966 1.38386 143.457 1.06216 144.008 0.819783C144.561 0.581284 145.152 0.462036 145.78 0.462036C146.709 0.462036 147.549 0.738251 148.297 1.29179C149.045 1.8481 149.423 2.69505 149.423 3.83042C149.423 4.4605 149.288 5.05176 149.037 5.60641C148.786 6.16106 148.448 6.63861 148.029 7.04461C147.608 7.44784 147.123 7.76843 146.571 8.00859C146.014 8.25098 145.424 8.36579 144.792 8.36579Z" fill="white"/>
<path d="M152.012 12.3199C152.516 12.1724 153.08 11.9949 153.693 11.8018C154.308 11.6088 154.995 11.4291 155.763 11.2672C156.522 11.1002 157.379 10.9649 158.321 10.8601C159.264 10.753 160.338 10.7009 161.531 10.7009C165.037 10.7009 167.454 11.722 168.789 13.7581C170.122 15.7942 170.353 18.5808 169.488 22.1128L166.429 34.8697H159.737L162.701 22.3812C162.882 21.6014 163.024 20.8476 163.129 20.111C163.234 19.3811 163.228 18.7377 163.105 18.1809C162.987 17.6307 162.708 17.1803 162.276 16.8314C161.837 16.4881 161.174 16.3156 160.275 16.3156C159.408 16.3156 158.527 16.4088 157.626 16.5885L153.269 34.8692H146.573L152.012 12.3199Z" fill="white"/>
</g>
<defs>
<clipPath id="clip0_57_177">
<rect width="170" height="35.4981" fill="white"/>
</clipPath>
</defs>
</svg>
