<svg width="21" height="21" viewBox="0 0 21 21" fill="none" xmlns="http://www.w3.org/2000/svg">
<path fill-rule="evenodd" clip-rule="evenodd" d="M12.321 20.4326C6.88182 21.3917 1.69556 17.7603 0.736482 12.321C-0.222599 6.88182 3.40886 1.69556 8.84808 0.73648C14.2873 -0.222601 19.4736 3.40886 20.4326 8.84808C21.3917 14.2873 17.7603 19.4736 12.321 20.4326ZM14.7945 8.58564C14.7603 7.26146 13.655 6.74111 12.2304 6.51506L12.358 4.69019L11.2477 4.61306L11.1231 6.38982C10.8313 6.36892 10.5329 6.35425 10.2352 6.33948L10.361 4.5511L9.25059 4.47336L9.12293 6.29761C8.88217 6.28549 8.64532 6.27394 8.4152 6.2574L8.41545 6.25164L6.88351 6.14415L6.80073 7.3303C6.80073 7.3303 7.62233 7.37201 7.60766 7.38602C8.05751 7.41776 8.18531 7.68907 8.21233 7.91785L8.06732 9.99649C8.09817 9.99866 8.13829 10.003 8.1843 10.012L8.06678 10.0042L7.86312 12.9163C7.83319 13.0561 7.73425 13.276 7.41952 13.2547C7.43331 13.2682 6.61248 13.1984 6.61248 13.1984L6.29905 14.509L7.74482 14.6101C8.01349 14.6293 8.27779 14.6526 8.53702 14.6722L8.40863 16.5175L9.51827 16.5948L9.64583 14.7699C9.95013 14.7968 10.2448 14.8198 10.5327 14.8401L10.4051 16.6574L11.5154 16.7345L11.6444 14.8928C13.5195 14.9163 14.859 14.5374 15.1439 12.7952C15.3739 11.3927 14.7538 10.7157 13.7116 10.3873C14.3789 10.1046 14.8214 9.55507 14.7945 8.58564ZM12.9643 12.423C12.8693 13.8023 10.5182 13.4801 9.76527 13.4282L9.93705 10.9831C10.6902 11.0362 13.0655 10.9848 12.9643 12.423ZM12.6892 8.93718C12.6014 10.1921 10.6422 9.90738 10.0157 9.86363L10.1706 7.6468C10.7971 7.69055 12.7808 7.62827 12.6892 8.93718Z" fill="#0F0E17" fill-opacity="0.6"/>
</svg>
