<svg width="28" height="27" viewBox="0 0 28 27" fill="none" xmlns="http://www.w3.org/2000/svg">
<path d="M3.2991 5.14998C3.26785 4.25434 3.40324 3.38994 3.96042 2.6401C3.97604 3.02543 4.0229 3.39515 4.17912 3.76486C4.48635 2.33287 5.20495 1.19769 6.38178 0.354122C6.28284 0.661349 6.19953 0.968575 6.22556 1.2758C6.67859 0.890467 7.20452 0.348915 8.53757 0.0937603C9.30304 -0.0520422 10.0841 -0.0103843 10.7298 0.145833C12.7346 0.630105 13.9062 1.93191 14.3593 3.91066C14.6352 5.11353 14.3957 6.25391 13.9271 7.36826C13.6563 8.01396 13.3022 8.63883 12.8492 9.196C12.745 9.09706 12.6461 8.99813 12.5471 8.9044C10.3184 6.77985 11.1516 7.59217 10.5996 6.95689C10.5424 6.8944 10.5476 6.84233 10.5944 6.76943C11.0266 6.06645 11.2089 5.30099 11.1152 4.47825C11.0579 3.96794 10.8912 3.49408 10.5267 3.11395C9.77169 2.31725 8.4855 2.33287 7.74087 3.1452C7.14724 3.7961 7.00665 4.57198 7.17328 5.41555C7.18369 5.48324 7.19411 5.55615 7.17328 5.61863C6.99623 6.33202 6.93374 7.05583 7.0431 7.78484C7.0483 7.81088 7.0483 7.84212 7.0483 7.86816C7.0483 7.88378 7.0431 7.89419 7.03789 7.92544C5.90271 7.35264 5.16329 6.45179 4.78837 5.20726C4.35617 6.13415 4.21036 7.05583 4.44469 8.02437C3.63236 7.23287 3.33555 6.23829 3.2991 5.14998ZM27.7523 11.5653C27.1482 10.9613 26.4504 10.503 25.6642 10.1802C24.9976 9.90939 24.3103 9.7688 23.5865 9.81045C23.0657 9.8417 22.5659 9.97188 22.0764 10.1437C21.9462 10.1906 21.8108 10.227 21.6754 10.2583C21.4203 10.3208 21.2953 10.0969 21.4307 9.90418C21.5973 9.66465 21.6077 9.68548 22.2118 9.27932C22.243 9.25849 22.2742 9.23766 22.3263 9.20121H22.1961C22.1649 9.20121 22.1337 9.21162 22.0972 9.21683C21.0922 9.38867 20.4986 10.024 19.5509 10.7582C19.0093 11.18 18.8323 10.956 18.926 10.7321C18.9989 10.5499 19.0978 10.3833 19.1916 10.2114C19.2436 10.1177 19.3113 10.0344 19.3738 9.94584C19.3634 9.93543 19.3478 9.93022 19.3374 9.91981C17.9314 10.8727 16.9056 12.1277 16.3328 13.7367C16.3484 13.7523 16.3692 13.768 16.3849 13.7836C16.4005 13.7523 16.4109 13.7211 16.4317 13.695C16.9733 13.065 17.619 12.5599 18.3376 12.1433C19.2853 11.5913 20.2903 11.1904 21.3942 11.0914C21.6181 11.0706 21.8473 11.0862 22.0764 11.0862C21.9826 11.1227 21.8941 11.1331 21.8004 11.1435C20.8371 11.2685 19.9518 11.6122 19.1187 12.1068C17.5461 13.0389 16.2807 14.3043 15.208 15.7727C15.1924 15.7936 15.1872 15.8196 15.1716 15.8404C15.9266 16.1164 16.4213 16.7413 17.0514 17.1735C17.0618 17.1683 17.067 17.1631 17.0722 17.1527L17.1347 17.0121C17.77 15.6113 18.5407 14.2887 19.5665 13.1327C20.4361 12.1537 21.5452 11.8152 22.821 12.0912C23.1282 12.1589 23.4146 12.3203 23.7167 12.4453C23.8364 12.3724 23.9822 12.2787 24.1332 12.2006C24.5706 11.9767 25.0393 11.8361 25.5236 11.7319C26.289 11.5705 27.0597 11.4768 27.8408 11.6642V11.6382C27.8147 11.6174 27.7783 11.5965 27.7523 11.5653ZM15.4944 20.704C13.4428 18.9856 14.3072 19.6886 13.2709 18.8502C13.2293 18.8971 13.2709 18.8398 13.172 19.0064C12.5888 20.001 11.8442 20.8446 10.8808 21.4851C10.3445 21.8392 9.76127 22.0995 9.10516 22.0995C7.9804 22.0995 7.116 21.6048 6.53279 20.6519C5.90792 19.6365 5.84023 18.5326 6.1058 17.3922C6.51196 15.6321 7.67317 14.5178 8.11579 14.0439C7.14203 13.7211 6.3974 14.1325 5.69963 14.7677C5.74129 14.0439 5.92354 13.4034 6.31409 12.8254C5.04873 13.3774 3.92397 14.1272 2.9398 15.1114C2.92418 14.8094 3.22099 12.8359 3.2314 12.7838C3.24703 12.6432 3.20016 12.5078 3.07519 12.3984C1.81504 13.6846 0.757969 15.0958 0.153931 16.8038C0.539266 16.4965 0.929808 16.2101 1.38284 15.9602C0.950637 17.1214 0.36222 18.7096 0.976673 21.2247C1.21621 22.2141 1.59633 23.141 2.23162 23.9481C2.38263 24.1408 2.55967 24.3074 2.7263 24.4844C2.73672 24.474 2.74713 24.4688 2.75755 24.4584C2.68465 24.0939 2.64299 23.7242 2.67944 23.318C2.794 23.4846 2.88252 23.6304 2.98666 23.7658C3.64278 24.599 4.48114 25.1926 5.44448 25.6196C6.74629 26.208 8.10537 26.3122 9.50091 26.0674C12.3597 25.5623 14.2239 23.5367 15.5413 20.9227C15.5934 20.829 15.5725 20.7717 15.4944 20.704ZM24.4509 18.2878C23.9562 18.1264 23.2949 18.0691 22.9564 18.1368C23.4719 18.3451 23.6906 18.4805 23.9354 18.7617C24.5915 19.5115 24.4769 20.5686 23.6542 21.1362C23.0449 21.558 22.3576 21.6829 21.6286 21.61C21.5661 21.6048 21.5088 21.5892 21.4723 21.5788C21.6181 21.3861 21.7848 21.2143 21.8941 21.0164C22.3836 20.1416 22.1753 18.8242 21.4411 18.0952C21.3317 17.9858 21.2016 17.8921 21.0766 17.7879C21.061 17.8556 21.0714 17.8973 21.0818 17.9337C21.3005 18.7981 20.66 19.6209 19.7904 19.5896C19.3947 19.574 19.0666 19.3918 18.7698 19.147C17.7544 18.3087 16.7338 17.4755 15.7236 16.6319C15.4163 16.3768 15.0726 16.2101 14.6769 16.1789C14.4374 16.1581 14.1926 16.1477 13.9531 16.132C13.6459 16.1112 13.4949 15.9862 13.4115 15.6946C13.3647 15.5176 13.3334 15.3405 13.297 15.1635C13.2189 14.7417 12.9741 14.4865 12.5523 14.4241C12.3232 14.3876 12.0889 14.372 11.8598 14.346C11.1828 14.2731 10.8288 13.9606 10.683 13.2889C10.4226 13.8617 10.5996 14.4553 11.0631 14.8458C11.2974 15.0437 11.5474 15.226 11.7817 15.4291C12.0212 15.6269 12.167 15.8821 12.193 16.1997C12.2139 16.4445 12.2347 16.6944 12.2868 16.9339C12.4013 17.4859 12.7502 17.8921 13.172 18.241C14.0312 18.9544 14.8904 19.6625 15.7496 20.3811C16.6817 21.1622 16.4734 22.0891 16.4265 23.2972C16.3797 24.4896 17.0618 25.5311 18.1709 25.9633C18.223 25.9841 18.2751 25.9945 18.3584 26.0206C17.5409 25.0729 17.8325 23.7242 18.3949 23.2972C18.4105 23.4117 18.4157 23.5211 18.4417 23.6304C18.9312 25.9268 20.8058 26.9735 22.8679 26.5934C23.701 26.4424 24.4613 26.1299 25.1018 25.5623C25.2059 25.4686 25.2944 25.3488 25.409 25.2239C24.404 25.4634 23.5448 25.2291 22.7585 24.6719C22.795 24.6563 22.8262 24.6563 22.8575 24.6563C23.9666 24.75 24.9716 24.4792 25.8256 23.7502C26.841 22.8858 27.2107 21.5163 26.7316 20.3134C26.2994 19.2668 25.5027 18.6315 24.4509 18.2878ZM4.17912 9.3366C3.90314 8.85753 3.49177 8.52427 3.02832 8.22746C3.74171 8.20142 4.41345 8.23787 5.09039 8.42012C4.72588 7.78484 4.64777 7.13394 4.83002 6.40492C5.10601 7.02459 5.54342 7.45158 6.05893 7.80046C7.08476 8.48782 7.91791 8.82108 8.49071 9.37305C8.66775 9.54489 8.81876 9.74276 8.9906 9.94063C8.94894 9.83128 8.9177 9.72714 8.87604 9.6282C8.61568 9.07623 8.1991 8.65966 7.69921 8.32639C7.60548 8.26391 7.55341 8.19621 7.52216 8.09207C7.35032 7.44116 7.36595 6.78505 7.48571 6.13415C7.53778 5.84775 7.63151 5.56656 7.72004 5.28537C7.76169 5.1604 7.8398 5.04584 7.92833 4.94169C7.95957 5.30099 7.92833 6.26954 8.94894 7.33702C9.51132 7.92544 10.1154 8.4774 10.7142 9.03978C11.1828 9.4824 11.6671 9.90939 12.042 10.4353C12.0993 10.5186 12.1566 10.6072 12.2399 10.6801C11.9796 10.0031 11.5005 9.42512 10.9798 8.92002C10.4799 8.43575 9.96956 7.96189 9.45925 7.49324C9.28741 7.33702 9.21972 7.14435 9.19368 6.92565C9.1312 6.3841 9.19368 5.85296 9.41759 5.35306C9.44363 5.30099 9.47487 5.24892 9.51653 5.18123C9.54257 5.39993 9.54778 5.5926 9.58943 5.78526C9.83938 6.98813 10.6517 7.67549 12.1566 9.09186C12.6773 9.58134 13.1616 10.0916 13.4897 10.7373C13.7396 11.2216 13.8698 11.7267 13.7865 12.2787C13.7813 12.3099 13.8125 12.3672 13.8437 12.3828C14.1666 12.5182 14.3645 12.7421 14.3488 13.1275C14.7498 12.9921 14.9997 12.7109 15.2028 12.3724C15.4215 13.4243 14.729 14.9916 13.7865 15.4291C13.8073 15.1947 14.0468 14.2106 12.9273 13.9867C12.5732 13.919 12.2607 13.919 11.7348 13.8773C11.9796 13.4087 12.2764 12.8046 11.7608 12.7109C10.4642 12.4713 9.01143 12.8098 8.75107 12.9504C9.17806 12.9712 9.59985 13.0025 9.97477 13.1223C9.87062 13.4607 9.76648 13.7836 9.67275 14.1064C9.57381 14.4449 9.7821 14.8667 10.157 14.6063C10.2195 14.5594 10.2768 14.5074 10.3289 14.4657C10.1674 15.3978 10.1779 15.2937 10.1831 15.4186C10.1987 15.9498 10.6777 15.8248 11.0006 15.7988C10.8704 16.4132 9.46446 17.2203 8.63651 17.1422C9.00102 16.8975 9.29783 16.6059 9.46446 16.2101C9.12599 16.2518 8.79273 16.2935 8.46467 16.3351L8.44905 16.2882C8.69379 16.1112 8.86563 15.8821 8.98019 15.6061C9.43322 14.5074 8.79273 13.6274 7.67838 13.5284C7.20452 13.4868 6.75149 13.5701 6.32971 13.8148C6.65255 13.0025 7.22535 12.4297 8.02726 12.0183C7.23576 11.7944 7.56382 11.8777 6.74629 11.6903C7.50654 11.206 8.31887 11.0029 9.16765 10.93C8.89687 10.7634 6.66297 10.7425 5.51217 12.0183C5.92354 12.0912 6.31929 12.1641 6.72025 12.237C5.48093 12.6015 4.42907 13.2628 3.47094 14.0908C3.52822 13.8409 3.61153 13.5961 3.64278 13.3462C3.67402 13.1118 3.68443 12.8671 3.64798 12.638C3.56987 12.1485 3.18454 11.8517 2.62216 11.7892C2.21079 11.7423 1.80983 11.7944 1.40887 11.8569C1.36201 11.8621 1.32035 11.8725 1.25786 11.8569C2.08061 11.0862 3.13247 10.7269 4.0229 10.1125C4.33534 9.87815 4.377 9.68548 4.17912 9.3366ZM10.8652 10.7321C11.037 11.5653 11.5213 12.06 12.1045 11.9975C11.865 11.4091 11.4745 10.9821 10.8652 10.7321Z" fill="#FF8906"/>
</svg>
