<svg width="220" height="42" viewBox="0 0 220 42" fill="none" xmlns="http://www.w3.org/2000/svg">
<g clip-path="url(#clip0_57_145)">
<path d="M190.863 10.7959C192.19 10.7959 193.432 11.2312 194.523 12.0514C195.664 12.9052 196.286 14.2446 196.42 15.852C196.426 15.8736 196.424 15.8968 196.414 15.9169C196.404 15.937 196.387 15.9525 196.365 15.9603L196.319 15.9689H193.734C193.696 15.9689 193.658 15.95 193.642 15.9195L193.633 15.8851C193.331 13.5584 190.495 12.922 188.783 14.0607C187.59 14.8642 187.355 16.7058 188.497 17.643C188.944 18.0116 189.459 18.3055 189.982 18.5896L191.364 19.3415L192.578 19.9641C193.184 20.2757 193.784 20.5979 194.355 20.9748C196.319 22.2806 196.973 24.2563 196.62 26.449C196.219 28.6928 194.238 30.8524 190.411 30.8524C188.95 30.8524 187.54 30.4507 186.248 29.4796C184.872 28.4582 184.368 27.3367 184.368 25.3107C184.368 25.2734 184.397 25.2355 184.432 25.2192L184.469 25.2106H187.271C187.321 25.2106 187.372 25.2605 187.372 25.3107C187.372 25.4951 187.406 25.9136 187.473 26.1314C187.859 27.3367 188.966 28.1067 190.394 28.1905C191.703 28.2743 193.012 27.5546 193.515 26.516C194.07 25.3778 193.667 23.9379 192.391 23.1516L192.228 23.0519L191.622 22.7055L190.892 22.3059L187.366 20.4471L187.152 20.3277L187.086 20.2886C183.411 18.0112 184.032 10.7959 190.863 10.7959H190.863ZM207.615 11.1809C207.653 11.1809 207.691 11.2093 207.708 11.2445L207.716 11.2814V18.8152C207.716 18.8822 207.781 18.9277 207.841 18.9088L207.884 18.8822L215.286 11.2144C215.297 11.2023 215.31 11.1926 215.325 11.1861L215.353 11.1809H218.928C218.995 11.1809 219.041 11.2454 219.022 11.3055L218.995 11.3485L210.267 20.3891C210.244 20.4114 210.237 20.4484 210.244 20.4806L210.267 20.5227L219.968 30.5173C220.022 30.5577 220 30.641 219.955 30.681L219.918 30.702H216.343L216.309 30.6913L216.276 30.6681L207.884 22.0296C207.844 21.9759 207.76 21.9974 207.729 22.0511L207.716 22.0967V30.6015C207.716 30.6389 207.688 30.6767 207.653 30.693L207.615 30.7016H204.811C204.774 30.7016 204.736 30.6737 204.719 30.6384L204.711 30.6015V11.2814C204.711 11.2436 204.739 11.2063 204.774 11.1895L204.811 11.1809H207.615ZM65.0448 11.1641C65.0784 11.1641 65.105 11.1719 65.1235 11.1916L65.1458 11.2312L67.4451 18.7984C67.4501 18.8154 67.4593 18.8309 67.472 18.8434C67.4846 18.8559 67.5002 18.865 67.5173 18.8698C67.5344 18.8746 67.5524 18.875 67.5697 18.8709C67.587 18.8668 67.6029 18.8585 67.6161 18.8465L67.6466 18.7984L69.9463 11.2316C69.958 11.2068 69.9777 11.1865 70.0022 11.174L70.0468 11.1641H74.2934C74.3313 11.1641 74.3691 11.1925 74.3854 11.2277L74.394 11.2647V30.5852C74.394 30.6225 74.3656 30.6604 74.3304 30.6767L74.2934 30.6853H71.4902C71.4528 30.6853 71.415 30.6573 71.3982 30.6221L71.3896 30.5852V15.9027C71.3896 15.8048 71.2732 15.7652 71.2147 15.8228L71.1881 15.8692L68.8721 23.4867L68.7041 24.0221C68.6922 24.0468 68.6726 24.0669 68.6482 24.0793L68.6035 24.0891H66.4551C66.4211 24.0891 66.3949 24.0818 66.3764 24.0621L66.3541 24.0221L66.1865 23.4867L63.8705 15.8692C63.8421 15.7854 63.721 15.7833 63.6814 15.8525L63.6686 15.9027V30.5852C63.6686 30.6225 63.6402 30.6604 63.605 30.6767L63.568 30.6853H60.7647C60.7269 30.6853 60.6891 30.6573 60.6728 30.6221L60.6642 30.5852V11.2647C60.6642 11.2269 60.6925 11.1895 60.7278 11.1727L60.7647 11.1641H65.0448ZM146.435 11.1641C146.468 11.1641 146.494 11.1719 146.513 11.1916L146.535 11.2312L148.835 18.7984C148.84 18.8154 148.849 18.8308 148.862 18.8432C148.875 18.8556 148.89 18.8646 148.907 18.8694C148.924 18.8743 148.942 18.8747 148.959 18.8707C148.977 18.8667 148.993 18.8583 149.006 18.8465L149.037 18.7984L151.335 11.2316C151.347 11.2068 151.366 11.1865 151.391 11.174L151.436 11.1641H155.699C155.737 11.1641 155.775 11.1925 155.791 11.2277L155.8 11.2647V30.5852C155.8 30.6225 155.772 30.6604 155.736 30.6767L155.699 30.6853H152.897C152.859 30.6853 152.821 30.6573 152.805 30.6221L152.796 30.5852V15.9027C152.796 15.8048 152.68 15.7652 152.621 15.8228L152.595 15.8692L150.278 23.4867L150.11 24.0221C150.099 24.0468 150.079 24.0669 150.054 24.0793L150.01 24.0891H147.861C147.827 24.0891 147.801 24.0818 147.782 24.0621L147.76 24.0221L147.592 23.4867L145.277 15.8692C145.249 15.7854 145.127 15.7833 145.088 15.8525L145.075 15.9027V30.5852C145.075 30.6225 145.047 30.6604 145.011 30.6767L144.974 30.6853H142.171C142.133 30.6853 142.095 30.6573 142.079 30.6221L142.07 30.5852V11.2647C142.07 11.2269 142.098 11.1895 142.134 11.1727L142.171 11.1641H146.435ZM115.282 11.1641C115.302 11.163 115.323 11.1686 115.34 11.1801C115.357 11.1916 115.37 11.2083 115.376 11.2277L115.382 11.2647V13.6752C115.382 13.713 115.354 13.7509 115.319 13.7672L115.282 13.7758H110.162V30.5852C110.162 30.6225 110.134 30.6604 110.098 30.6767L110.061 30.6853H107.259C107.221 30.6853 107.183 30.6573 107.167 30.6221L107.158 30.5852V13.7758H102.038C102 13.7758 101.962 13.7474 101.946 13.7122L101.937 13.6752V11.2647C101.937 11.2264 101.966 11.1891 102.001 11.1723L102.038 11.1637H115.281L115.282 11.1641ZM129.095 11.0971C129.129 11.0971 129.156 11.1044 129.174 11.1242L129.196 11.1641L134.466 30.5508C134.472 30.5743 134.47 30.5991 134.46 30.6213C134.451 30.6435 134.434 30.6617 134.412 30.6732L134.366 30.6848H131.815C131.787 30.6819 131.761 30.6698 131.741 30.6505L131.715 30.6178L130.187 24.976C130.175 24.9513 130.156 24.9312 130.131 24.9189L130.087 24.909H124.446C124.412 24.909 124.386 24.9163 124.368 24.9361L124.345 24.976L122.818 30.6178C122.806 30.6425 122.787 30.6626 122.762 30.675L122.717 30.6848H120.166C120.142 30.6844 120.119 30.6758 120.1 30.6604C120.082 30.645 120.069 30.6238 120.064 30.6002L120.065 30.5508L125.336 11.1641C125.347 11.1395 125.367 11.1194 125.391 11.107L125.436 11.0971H129.095H129.095ZM172.602 11.0971C172.635 11.0971 172.661 11.1044 172.68 11.1242L172.703 11.1641L177.972 30.5508C177.978 30.5744 177.976 30.5992 177.966 30.6214C177.956 30.6436 177.939 30.6618 177.918 30.6732L177.871 30.6848H175.321C175.306 30.6849 175.292 30.6819 175.278 30.676C175.265 30.6701 175.252 30.6614 175.242 30.6505L175.22 30.6178L173.693 24.976C173.681 24.9513 173.662 24.9312 173.637 24.9189L173.592 24.909H167.952C167.919 24.909 167.893 24.9163 167.874 24.9361L167.852 24.976L166.325 30.6178C166.313 30.6425 166.293 30.6626 166.269 30.675L166.224 30.6848H163.672C163.648 30.6844 163.625 30.6758 163.606 30.6604C163.588 30.645 163.575 30.6238 163.57 30.6002L163.571 30.5508L168.841 11.1641C168.853 11.1395 168.873 11.1194 168.897 11.107L168.942 11.0971H172.601H172.602ZM94.3684 11.1809C94.4058 11.1809 94.4436 11.2093 94.46 11.2445L94.4686 11.2814V13.692C94.4686 13.7298 94.4406 13.7676 94.405 13.7839L94.368 13.7925H85.8748C85.837 13.7925 85.7992 13.8209 85.7829 13.8561L85.7743 13.8931V19.0163C85.7743 19.0536 85.8026 19.0914 85.8379 19.1078L85.8748 19.1164H93.3441C93.3819 19.1164 93.4197 19.1447 93.4364 19.18L93.445 19.2169V21.6275C93.445 21.6653 93.4167 21.7031 93.381 21.7194L93.3441 21.728H85.8748C85.837 21.728 85.7992 21.7564 85.7829 21.7916L85.7743 21.8286V27.8223C85.7743 27.867 85.7893 27.8966 85.8142 27.9168L85.858 27.9396H94.7204C94.7582 27.9396 94.796 27.9675 94.8127 28.0032L94.8213 28.0397V30.5847C94.8213 30.6221 94.793 30.6599 94.7577 30.6762L94.7204 30.6848H82.8704C82.8326 30.6848 82.7948 30.6569 82.7785 30.6213L82.7699 30.5847V11.2814C82.7699 11.2436 82.7982 11.2063 82.8335 11.1895L82.8704 11.1809H94.368H94.3684ZM127.367 14.5961C127.362 14.579 127.353 14.5635 127.34 14.551C127.328 14.5386 127.312 14.5295 127.295 14.5247C127.278 14.5199 127.26 14.5195 127.243 14.5235C127.225 14.5276 127.209 14.536 127.196 14.5479L127.166 14.5961L125.118 22.1465C125.105 22.1968 125.131 22.2471 125.172 22.269L125.218 22.2806H129.314C129.338 22.2801 129.361 22.2714 129.38 22.2561C129.398 22.2407 129.411 22.2195 129.415 22.1959L129.415 22.1465L127.367 14.5961ZM170.873 14.5961C170.868 14.579 170.859 14.5635 170.846 14.551C170.833 14.5386 170.818 14.5295 170.801 14.5247C170.784 14.5199 170.766 14.5195 170.748 14.5235C170.731 14.5276 170.715 14.536 170.702 14.5479L170.671 14.5961L168.624 22.1465C168.611 22.1968 168.636 22.2471 168.678 22.269L168.724 22.2806H172.82C172.844 22.2802 172.867 22.2716 172.886 22.2562C172.904 22.2408 172.917 22.2195 172.922 22.1959L172.921 22.1465L170.873 14.5961Z" fill="white"/>
<path d="M42.8657 0L24.0359 13.9326L27.5378 5.72172L42.8657 0Z" fill="#E17726"/>
<path d="M1.06128 0.0163574L16.3483 5.72261L19.6732 14.0414L1.06128 0.0163574Z" fill="#E27625"/>
<path d="M35.2881 29.6312L43.6103 29.7894L40.7017 39.67L30.5465 36.874L35.2881 29.6312Z" fill="#E27625"/>
<path d="M8.59455 29.6309L13.3185 36.8741L3.17963 39.6705L0.289551 29.7894L8.59455 29.6309Z" fill="#E27625"/>
<path d="M19.2212 11.9225L19.5615 22.9075L9.38391 22.4443L12.2787 18.077L12.3157 18.0349L19.2212 11.9225Z" fill="#E27625"/>
<path d="M24.5567 11.7996L31.567 18.0352L31.6036 18.0774L34.4984 22.4443L24.3234 22.9075L24.5567 11.7996Z" fill="#E27625"/>
<path d="M13.6168 29.6626L19.1731 33.9926L12.7188 37.1091L13.6168 29.6626Z" fill="#E27625"/>
<path d="M30.2672 29.6622L31.1468 37.1091L24.7101 33.9922L30.2672 29.6622Z" fill="#E27625"/>
<path d="M24.8518 33.5844L31.3839 36.7473L25.3077 39.6348L25.3709 37.7265L24.8518 33.5844Z" fill="#D5BFB2"/>
<path d="M19.0291 33.5857L18.5306 37.6952L18.5715 39.6331L12.4811 36.7473L19.0291 33.5857Z" fill="#D5BFB2"/>
<path d="M17.1428 24.3409L18.85 27.9288L13.0385 26.226L17.1428 24.3409Z" fill="#233447"/>
<path d="M26.7394 24.3418L30.8636 26.226L25.0327 27.9275L26.7394 24.3418Z" fill="#233447"/>
<path d="M14.0607 29.6261L13.1214 37.3467L8.0863 29.7945L14.0607 29.6261Z" fill="#CC6228"/>
<path d="M29.8225 29.6261L35.7973 29.795L30.7433 37.3472L29.8225 29.6261Z" fill="#CC6228"/>
<path d="M34.6457 22.0078L30.2973 26.4391L26.9453 24.9073L25.34 28.2812L24.2881 22.4791L34.6457 22.0078Z" fill="#CC6228"/>
<path d="M9.23523 22.0078L19.595 22.4791L18.5423 28.2812L16.9369 24.9077L13.6026 26.4391L9.23523 22.0078Z" fill="#CC6228"/>
<path d="M8.94177 21.0985L13.8617 26.0902L14.0318 31.0187L8.94177 21.0985Z" fill="#E27525"/>
<path d="M34.9456 21.0891L29.8469 31.0273L30.0386 26.0906L34.9456 21.0891Z" fill="#E27525"/>
<path d="M19.354 21.4027L19.5521 22.6488L20.0415 25.7533L19.727 35.2881L18.2398 27.6289L18.2394 27.5498L19.354 21.4027Z" fill="#E27525"/>
<path d="M24.5261 21.3856L25.6437 27.5494V27.6285L24.1527 35.3074L24.0934 33.3867L23.861 25.6966L24.5261 21.3856Z" fill="#E27525"/>
<path d="M30.476 25.8917L30.3097 30.1735L25.1199 34.2169L24.071 33.4756L25.2467 27.4183L30.476 25.8917Z" fill="#F5841F"/>
<path d="M13.4247 25.8921L18.6359 27.4188L19.8116 33.4756L18.7627 34.2169L13.5729 30.1735L13.4247 25.8921Z" fill="#F5841F"/>
<path d="M11.4882 35.8015L18.1273 38.9477L18.0993 37.6041L18.6549 37.1168H25.2261L25.8019 37.6023L25.7589 38.9451L32.3564 35.8097L29.1462 38.4626L25.2644 41.1288H18.6012L14.722 38.4518L11.4882 35.8015Z" fill="#C0AC9D"/>
<path d="M24.3762 33.1659L25.315 33.8289L25.865 38.2177L25.0688 37.5457H18.8165L18.0353 38.2315L18.5677 33.8293L19.5065 33.1659H24.3762Z" fill="#161616"/>
<path d="M41.6226 0.385864L43.8827 7.16633L42.4712 14.0224L43.4767 14.798L42.1163 15.8357L43.1385 16.625L41.785 17.8582L42.616 18.4598L40.4104 21.0354L31.3646 18.4014L31.2864 18.3597L24.7681 12.861L41.6226 0.385864Z" fill="#763E1A"/>
<path d="M2.26016 0.385864L19.1151 12.8606L12.5967 18.3593L12.5181 18.4014L3.4723 21.0354L1.26758 18.4594L2.09773 17.8578L0.744648 16.6246L1.76516 15.8361L0.38457 14.7954L1.42785 14.0194L0 7.16719L2.26016 0.385864Z" fill="#763E1A"/>
<path d="M30.922 17.8256L40.5066 20.6164L43.6206 30.213H35.4058L29.7451 30.2844L33.8615 22.2608L30.922 17.8256Z" fill="#F5841F"/>
<path d="M12.9607 17.8256L10.0203 22.2608L14.1376 30.2844L8.47988 30.213H0.279297L3.37605 20.6164L12.9607 17.8256Z" fill="#F5841F"/>
<path d="M28.007 5.67615L25.3257 12.9164L24.7568 22.6974L24.5394 25.7632L24.5222 33.5951H19.3604L19.3436 25.7778L19.1253 22.6948L18.556 12.9164L15.8756 5.67615H28.007Z" fill="#F5841F"/>
</g>
<defs>
<clipPath id="clip0_57_145">
<rect width="220" height="41.25" fill="white"/>
</clipPath>
</defs>
</svg>
