<svg width="20" height="20" viewBox="0 0 20 20" fill="none" xmlns="http://www.w3.org/2000/svg">
<path d="M13.75 3.125C13.7499 2.39179 14.0076 1.68189 14.4781 1.11951C14.9485 0.557133 15.6017 0.178079 16.3234 0.048671C17.0451 -0.080737 17.7893 0.0477413 18.4259 0.411628C19.0624 0.775514 19.5507 1.35164 19.8054 2.0392C20.0601 2.72676 20.0649 3.48197 19.819 4.17272C19.573 4.86346 19.0921 5.44574 18.4602 5.81768C17.8284 6.18962 17.0858 6.32754 16.3625 6.20731C15.6393 6.08708 14.9813 5.71636 14.5037 5.16L6.10622 9.06C6.29927 9.6718 6.29927 10.3282 6.10622 10.94L14.5037 14.84C15.0085 14.2529 15.7133 13.8741 16.4815 13.7771C17.2496 13.68 18.0265 13.8716 18.6614 14.3146C19.2964 14.7577 19.7443 15.4207 19.9183 16.1752C20.0923 16.9296 19.98 17.7218 19.6032 18.3982C19.2264 19.0746 18.6119 19.587 17.8788 19.8362C17.1457 20.0853 16.3462 20.0535 15.6353 19.7468C14.9244 19.4401 14.3526 18.8803 14.0309 18.1761C13.7091 17.4718 13.6602 16.6732 13.8937 15.935L5.49622 12.035C5.08051 12.5195 4.5264 12.865 3.90844 13.0251C3.29047 13.1852 2.6383 13.1522 2.03964 12.9306C1.44098 12.709 0.92456 12.3093 0.559849 11.7854C0.195139 11.2614 -0.000366211 10.6384 -0.000366211 10C-0.000366211 9.36163 0.195139 8.73857 0.559849 8.21464C0.92456 7.69071 1.44098 7.29104 2.03964 7.0694C2.6383 6.84776 3.29047 6.81478 3.90844 6.97489C4.5264 7.13501 5.08051 7.48054 5.49622 7.965L13.8937 4.065C13.7981 3.76083 13.7496 3.44383 13.75 3.125Z" fill="#0F0E17" fill-opacity="0.6"/>
</svg>
