<svg width="25" height="18" viewBox="0 0 25 18" fill="none" xmlns="http://www.w3.org/2000/svg">
<path d="M1.5625 1.6875C1.5625 1.2731 1.72712 0.875671 2.02015 0.582646C2.31317 0.28962 2.7106 0.125 3.125 0.125H21.875C22.2894 0.125 22.6868 0.28962 22.9799 0.582646C23.2729 0.875671 23.4375 1.2731 23.4375 1.6875H1.5625ZM12.5 14.1875C13.3288 14.1875 14.1237 13.8583 14.7097 13.2722C15.2958 12.6862 15.625 11.8913 15.625 11.0625C15.625 10.2337 15.2958 9.43884 14.7097 8.85279C14.1237 8.26674 13.3288 7.9375 12.5 7.9375C11.6712 7.9375 10.8763 8.26674 10.2903 8.85279C9.70424 9.43884 9.375 10.2337 9.375 11.0625C9.375 11.8913 9.70424 12.6862 10.2903 13.2722C10.8763 13.8583 11.6712 14.1875 12.5 14.1875Z" fill="#0F0E17" fill-opacity="0.6"/>
<path d="M0 3.25C0 2.8356 0.16462 2.43817 0.457646 2.14515C0.750671 1.85212 1.1481 1.6875 1.5625 1.6875H23.4375C23.8519 1.6875 24.2493 1.85212 24.5424 2.14515C24.8354 2.43817 25 2.8356 25 3.25V15.75C25 16.1644 24.8354 16.5618 24.5424 16.8549C24.2493 17.1479 23.8519 17.3125 23.4375 17.3125H1.5625C1.1481 17.3125 0.750671 17.1479 0.457646 16.8549C0.16462 16.5618 0 16.1644 0 15.75V3.25ZM4.6875 3.25C4.6875 4.0788 4.35826 4.87366 3.77221 5.45971C3.18616 6.04576 2.3913 6.375 1.5625 6.375V12.625C2.3913 12.625 3.18616 12.9542 3.77221 13.5403C4.35826 14.1263 4.6875 14.9212 4.6875 15.75H20.3125C20.3125 14.9212 20.6417 14.1263 21.2278 13.5403C21.8138 12.9542 22.6087 12.625 23.4375 12.625V6.375C22.6087 6.375 21.8138 6.04576 21.2278 5.45971C20.6417 4.87366 20.3125 4.0788 20.3125 3.25H4.6875Z" fill="#0F0E17" fill-opacity="0.6"/>
</svg>
